# xmcd
#
# Track frame offsets:
#	182
#	11132
#	29157
#	42082
#	55802
#	72520
#	86555
#	106335
#	120020
#	131077
#	149970
#	166955
#	181365
#	193682
#	211880
#	230380
#	248752
#	261547
#
# Disc length: 3645 seconds
#
# Revision: 4
# Processed by: cddbd v1.5.2PL0 Copyright (c) Steve Scherf et al.
# Submitted via: Antz-MP3Processor 1.0.0
#
DISCID=0c0e3b12
DTITLE=Django Reinhardt - Indispensable Django Reinhardt [disc 2], (The)
DYEAR=1983
DGENRE=Jazz Manouche
TTITLE0=Django Reinhardt and Stéphane Grappelli - Daphne
TTITLE1=Frank Signorelli - Kaher and Matty Malneck - I'll Never Be the Same
TTITLE2=Irving Berlin - Marie
TTITLE3=Bobby Plater - Edward Johnson - Tiny Bradshaw and Knight - Jersey Bounce
TTITLE4=Harry Barris - Gordon Clifford and Crosby - I Surrender Dear
TTITLE5=Vincent Youmans - Clifford Grey and Leo Robin - Halleluyah
TTITLE6=Al Jolson and Saul Chaplin - Anniversary Song
TTITLE7=Henry Creamer and Turner Layton - After You've Gone
TTITLE8=Django Reinhardt - Swing 42
TTITLE9=Ted Koehler and Harold Arlen - Stormy Weather
TTITLE10=Django Reinhardt and Stéphane Grappelli - Brick Top
TTITLE11=Roger "Ram" Ramirez - Jimmy Davis and Jimmy Sherman - Lover Man (Oh, Where Can You Be?)
TTITLE12=Ira Gershwin and George Gershwin - I Got Rhythm
TTITLE13=Fats Waller and Andy Razaf - Honeysuckle Rose
TTITLE14=W. C. Handy - Saint-Louis Blues
TTITLE15=Duke Ellington - Irving Mills and Mitchell Parish - Sophisticated Lady
TTITLE16=Shelton Brooks - Darktown Strutter's Ball
TTITLE17=Clarence Williams and Spencer Williams - Royal Garden Blues
EXTD=Tracks 1-3,5,6,8,9,11-14 recorded at RAI studios, Rome IT-RM, 1949-01/02.\nDjango Reinhardt: guitar\nStéphane Grappelli: violin\nGianni Safred: piano\nCarlo Pecori: bass\nAurelio de Carolis: drums\n\nTracks 4,7,10,15-18 recorded at RA
EXTD=I studios, Rome IT-RM, 1950-04/05.\nDjango Reinhardt: guitar\nAndré Ekyan: alto sax, clarinet\nRalph [Raph(aël)] Schecroun [AKA, Errol Parker]: piano\nAlphonse "Alf" Masselier: bass\nRoger Paraboschi: drums\n\nAMG/Amazon title: Jazz T
EXTD=ribute No. 39: The Indispensable Django Reinhardt, 1949-1950\nCDUniverse title: Indispensable Django Reinhardt (1949-1950]\nJazz Heritage 2CD title (front and spine): The Indispensable Django Reinhardt\nCompilation originally produced b
EXTD=y Jean-Paul Guiter in 1983.\n(p) © 1992 BMG Music (RCA/Novus]\n2CD: RCA 66468 (1994-08-30), UPC 078636646824 - Jazz Heritage 524347M (1996), UPC 717794434729.
EXTT0=[1949]
EXTT1=[1949]
EXTT2=[1949]
EXTT3=[1950]
EXTT4=[1949]
EXTT5=[1949]
EXTT6=[1950]
EXTT7=[1949]
EXTT8=[1949]
EXTT9=[1950]
EXTT10=[1949]
EXTT11=[1949]
EXTT12=[1949]
EXTT13=[1949]
EXTT14=[1950]
EXTT15=[1950]
EXTT16=[1950]
EXTT17=[1950]
PLAYORDER=
